<svg id="Layer_1" data-name="Layer 1" xmlns="http://www.w3.org/2000/svg" width="130" height="22" viewBox="0 0 130 22"><defs><style>.cls-1{fill:none;}.cls-2{fill:#010101;}</style></defs><title>h-proof-logo</title><path class="cls-1" d="M54.86,5.69h-1.8v5.36H54.8c1.85,0,3.23-.78,3.23-2.76S56.55,5.69,54.86,5.69Z"/><path class="cls-1" d="M75,5.32A5.35,5.35,0,0,0,69.7,11c0,3.07,2.1,5.73,5.31,5.73A5.39,5.39,0,0,0,80.19,11C80.19,8,78.11,5.32,75,5.32Z"/><path class="cls-1" d="M38.32,5.69H36.5v4.58h2c1.61,0,3.07-.36,3.07-2.32S39.94,5.69,38.32,5.69Z"/><path class="cls-1" d="M97.11,5.32A5.35,5.35,0,0,0,91.85,11c0,3.07,2.11,5.73,5.31,5.73A5.39,5.39,0,0,0,102.35,11C102.35,8,100.26,5.32,97.11,5.32Z"/><polygon class="cls-2" points="120.44 5.69 120.44 1.36 109.92 1.36 109.92 20.64 114.63 20.64 114.63 13.29 120.23 13.29 120.23 8.97 114.63 8.97 114.63 5.69 120.44 5.69"/><path class="cls-2" d="M74.93,1a9.93,9.93,0,0,0-8.15,4,8.81,8.81,0,0,0-1.25,2.16,11.1,11.1,0,0,0-.76,4.11A10.17,10.17,0,1,0,74.93,1ZM75,16.68C71.8,16.68,69.7,14,69.7,11A5.35,5.35,0,0,1,75,5.32c3.15,0,5.23,2.71,5.23,5.71A5.39,5.39,0,0,1,75,16.68Z"/><path class="cls-2" d="M97.09,1a9.91,9.91,0,0,0-8.15,4,8.5,8.5,0,0,0-1.25,2.16,10.9,10.9,0,0,0-.76,4.11A10.17,10.17,0,1,0,97.09,1Zm.07,15.68C94,16.68,91.85,14,91.85,11a5.35,5.35,0,0,1,5.26-5.63c3.15,0,5.24,2.71,5.24,5.71A5.39,5.39,0,0,1,97.16,16.68Z"/><path class="cls-2" d="M62.75,8a6.69,6.69,0,0,0-2.37-5.27c-1.67-1.32-3.91-1.38-5.94-1.38H48.35V20.64h4.71V14.41h0l4.45,6.23h5.63L58,14.07A5.81,5.81,0,0,0,62.75,8Zm-8,3H53.06V5.69h1.8c1.69,0,3.17.7,3.17,2.6S56.65,11.05,54.8,11.05Z"/><path class="cls-2" d="M44,2.77c-1.59-1.33-4-1.41-5.94-1.41h-6.3V20.64H36.5V14.59h2.14c2.16,0,4-.2,5.62-1.66a7,7,0,0,0,2-5.06A6.56,6.56,0,0,0,44,2.77Zm-5.52,7.5h-2V5.69h1.82c1.62,0,3.26.26,3.26,2.26S40.12,10.27,38.51,10.27Z"/><polygon class="cls-2" points="5.63 8.6 5.63 1.36 0.71 1.36 0.71 20.64 5.63 20.64 5.63 12.93 5.63 12.9 9.2 12.9 11.78 8.66 5.63 8.66 5.63 8.6"/><polygon class="cls-2" points="11.94 8.6 11.94 12.93 11.94 20.64 16.86 20.64 16.86 1.36 11.94 1.36 11.94 8.6"/><polygon class="cls-2" points="19.37 12.9 26.69 12.9 29.27 8.66 21.95 8.66 19.37 12.9"/><path d="M124.52,6.32V2.64h1.56a2.91,2.91,0,0,1,.86.1.86.86,0,0,1,.42.36,1,1,0,0,1,.16.58,1,1,0,0,1-.24.68,1.17,1.17,0,0,1-.73.34A1.63,1.63,0,0,1,127,5a3.41,3.41,0,0,1,.42.59l.45.72h-.88l-.54-.8Q126.11,5.1,126,5a.65.65,0,0,0-.23-.15,1.14,1.14,0,0,0-.37,0h-.15V6.32Zm.74-2.12h.55a2.81,2.81,0,0,0,.67,0,.43.43,0,0,0,.2-.15.49.49,0,0,0,.08-.28.44.44,0,0,0-.1-.3.5.5,0,0,0-.28-.14h-1.12Z"/><path d="M126.08,1.67a2.79,2.79,0,1,1-2.79,2.79,2.79,2.79,0,0,1,2.79-2.79m0-.42a3.21,3.21,0,1,0,3.21,3.21,3.21,3.21,0,0,0-3.21-3.21Z"/></svg>